{
  "asset": {
    "generator": "Khronos glTF Blender I/O v1.6.16",
    "version": "2.0"
  },
  "extensionsUsed": [
    "KHR_texture_transform"
  ],
  "extensionsRequired": [
    "KHR_texture_transform"
  ],
  "scene": 0,
  "scenes": [
    {
      "name": "Scene",
      "nodes": [
        0
      ]
    }
  ],
  "nodes": [
    {
      "mesh": 0,
      "name": "sphere_gltf"
    }
  ],
  "materials": [
    {
      "doubleSided": true,
      "name": "beige_wall_002",
      "normalTexture": {
        "extensions": {
          "KHR_texture_transform": {
            "offset": [
              0,
              -3
            ],
            "scale": [
              1,
              4
            ]
          }
        },
        "index": 0
      },
      "pbrMetallicRoughness": {
        "baseColorTexture": {
          "extensions": {
            "KHR_texture_transform": {
              "offset": [
                0,
                -3
              ],
              "scale": [
                1,
                4
              ]
            }
          },
          "index": 1
        },
        "metallicFactor": 0,
        "metallicRoughnessTexture": {
          "extensions": {
            "KHR_texture_transform": {
              "offset": [
                0,
                -3
              ],
              "scale": [
                1,
                4
              ]
            }
          },
          "index": 2
        }
      }
    }
  ],
  "meshes": [
    {
      "name": "Sphere.001",
      "primitives": [
        {
          "attributes": {
            "POSITION": 0,
            "NORMAL": 1,
            "TEXCOORD_0": 2
          },
          "indices": 3,
          "material": 0
        }
      ]
    }
  ],
  "textures": [
    {
      "sampler": 0,
      "source": 0
    },
    {
      "sampler": 0,
      "source": 1
    },
    {
      "sampler": 0,
      "source": 2
    }
  ],
  "images": [
    {
      "mimeType": "image/jpeg",
      "name": "beige_wall_002_nor_gl_32k",
      "uri": "textures/beige_wall_002_nor_gl_1k.jpg"
    },
    {
      "mimeType": "image/jpeg",
      "name": "beige_wall_002_diff_32k",
      "uri": "textures/beige_wall_002_diff_1k.jpg"
    },
    {
      "mimeType": "image/jpeg",
      "name": "beige_wall_002_rough_32k",
      "uri": "textures/beige_wall_002_rough_1k.jpg"
    }
  ],
  "accessors": [
    {
      "bufferView": 0,
      "componentType": 5126,
      "count": 53906,
      "max": [
        1.5021944046020508,
        1.5031553506851196,
        1.5016080141067505
      ],
      "min": [
        -1.501994252204895,
        -1.5026851892471313,
        -1.5016087293624878
      ],
      "type": "VEC3"
    },
    {
      "bufferView": 1,
      "componentType": 5126,
      "count": 53906,
      "type": "VEC3"
    },
    {
      "bufferView": 2,
      "componentType": 5126,
      "count": 53906,
      "type": "VEC2"
    },
    {
      "bufferView": 3,
      "componentType": 5123,
      "count": 322170,
      "type": "SCALAR"
    }
  ],
  "bufferViews": [
    {
      "buffer": 0,
      "byteLength": 646872,
      "byteOffset": 0
    },
    {
      "buffer": 0,
      "byteLength": 646872,
      "byteOffset": 646872
    },
    {
      "buffer": 0,
      "byteLength": 431248,
      "byteOffset": 1293744
    },
    {
      "buffer": 0,
      "byteLength": 644340,
      "byteOffset": 1724992
    }
  ],
  "samplers": [
    {
      "magFilter": 9729,
      "minFilter": 9987
    }
  ],
  "buffers": [
    {
      "byteLength": 2369332,
      "uri": "beige_wall_002.bin"
    }
  ]
}